<mxfile host="app.diagrams.net" modified="2023-11-14T20:42:31.534Z" agent="Mozilla/5.0 (Windows NT 10.0; Win64; x64) AppleWebKit/537.36 (KHTML, like Gecko) Chrome/119.0.0.0 Safari/537.36 Edg/119.0.0.0" etag="O78HlCw1RQLpXyklLjdv" version="22.1.1" type="github">
  <diagram id="C5RBs43oDa-KdzZeNtuy" name="Page-1">
    <mxGraphModel dx="1865" dy="2307" grid="1" gridSize="10" guides="1" tooltips="1" connect="1" arrows="1" fold="1" page="1" pageScale="1" pageWidth="827" pageHeight="1169" math="0" shadow="0">
      <root>
        <mxCell id="WIyWlLk6GJQsqaUBKTNV-0" />
        <mxCell id="WIyWlLk6GJQsqaUBKTNV-1" parent="WIyWlLk6GJQsqaUBKTNV-0" />
        <mxCell id="nasBl9K5YajOh5_W6PYL-2" style="edgeStyle=orthogonalEdgeStyle;rounded=0;orthogonalLoop=1;jettySize=auto;html=1;exitX=1;exitY=0.5;exitDx=0;exitDy=0;strokeColor=#028090;fontColor=#E4FDE1;fillColor=#F45B69;" parent="WIyWlLk6GJQsqaUBKTNV-1" source="nasBl9K5YajOh5_W6PYL-0" target="nasBl9K5YajOh5_W6PYL-3" edge="1">
          <mxGeometry relative="1" as="geometry">
            <mxPoint x="220" y="150" as="targetPoint" />
          </mxGeometry>
        </mxCell>
        <mxCell id="nasBl9K5YajOh5_W6PYL-0" value="&lt;font color=&quot;#ffffff&quot;&gt;&quot;Enter number of rows.&quot;&lt;/font&gt;" style="shape=parallelogram;perimeter=parallelogramPerimeter;whiteSpace=wrap;html=1;fixedSize=1;fillColor=#007FFF;labelBackgroundColor=none;strokeColor=#028090;fontColor=#E4FDE1;" parent="WIyWlLk6GJQsqaUBKTNV-1" vertex="1">
          <mxGeometry x="160" y="40" width="120" height="60" as="geometry" />
        </mxCell>
        <mxCell id="nasBl9K5YajOh5_W6PYL-3" value="&amp;nbsp;n" style="shape=card;whiteSpace=wrap;html=1;strokeColor=#028090;fontColor=#E4FDE1;fillColor=#663300;" parent="WIyWlLk6GJQsqaUBKTNV-1" vertex="1">
          <mxGeometry x="341.88" y="45" width="46.25" height="50" as="geometry" />
        </mxCell>
        <mxCell id="nasBl9K5YajOh5_W6PYL-11" style="edgeStyle=orthogonalEdgeStyle;rounded=0;orthogonalLoop=1;jettySize=auto;html=1;exitX=1;exitY=0.5;exitDx=0;exitDy=0;strokeColor=#028090;fontColor=#E4FDE1;fillColor=#F45B69;entryX=0;entryY=0.5;entryDx=0;entryDy=0;exitPerimeter=0;" parent="WIyWlLk6GJQsqaUBKTNV-1" source="nasBl9K5YajOh5_W6PYL-3" target="nasBl9K5YajOh5_W6PYL-16" edge="1">
          <mxGeometry relative="1" as="geometry">
            <mxPoint x="399.79310344827593" y="360" as="targetPoint" />
          </mxGeometry>
        </mxCell>
        <mxCell id="nasBl9K5YajOh5_W6PYL-18" style="edgeStyle=orthogonalEdgeStyle;rounded=0;orthogonalLoop=1;jettySize=auto;html=1;exitX=0.5;exitY=1;exitDx=0;exitDy=0;strokeColor=#028090;fontColor=#E4FDE1;fillColor=#F45B69;entryX=0.5;entryY=0;entryDx=0;entryDy=0;" parent="WIyWlLk6GJQsqaUBKTNV-1" source="nasBl9K5YajOh5_W6PYL-16" target="3u2NiJshkMNRiN74Tzxv-0" edge="1">
          <mxGeometry relative="1" as="geometry">
            <mxPoint x="485" y="190" as="targetPoint" />
          </mxGeometry>
        </mxCell>
        <mxCell id="nasBl9K5YajOh5_W6PYL-16" value="i=1" style="rounded=0;whiteSpace=wrap;html=1;strokeColor=#028090;fontColor=#E4FDE1;fillColor=#F45B69;" parent="WIyWlLk6GJQsqaUBKTNV-1" vertex="1">
          <mxGeometry x="450" y="50" width="70" height="40" as="geometry" />
        </mxCell>
        <mxCell id="nasBl9K5YajOh5_W6PYL-31" value="END" style="ellipse;whiteSpace=wrap;html=1;strokeColor=#028090;fontColor=#E4FDE1;fillColor=#0000CC;" parent="WIyWlLk6GJQsqaUBKTNV-1" vertex="1">
          <mxGeometry x="1050" y="800" width="90" height="55" as="geometry" />
        </mxCell>
        <mxCell id="nasBl9K5YajOh5_W6PYL-34" style="edgeStyle=orthogonalEdgeStyle;rounded=0;orthogonalLoop=1;jettySize=auto;html=1;exitX=0.5;exitY=1;exitDx=0;exitDy=0;entryX=0.5;entryY=0;entryDx=0;entryDy=0;strokeColor=#028090;fontColor=#E4FDE1;fillColor=#F45B69;" parent="WIyWlLk6GJQsqaUBKTNV-1" source="nasBl9K5YajOh5_W6PYL-33" target="nasBl9K5YajOh5_W6PYL-0" edge="1">
          <mxGeometry relative="1" as="geometry" />
        </mxCell>
        <mxCell id="nasBl9K5YajOh5_W6PYL-33" value="START" style="ellipse;whiteSpace=wrap;html=1;strokeColor=#028090;fontColor=#E4FDE1;fillColor=#0000CC;" parent="WIyWlLk6GJQsqaUBKTNV-1" vertex="1">
          <mxGeometry x="175" y="-70" width="90" height="55" as="geometry" />
        </mxCell>
        <mxCell id="3u2NiJshkMNRiN74Tzxv-14" style="edgeStyle=orthogonalEdgeStyle;shape=connector;rounded=0;orthogonalLoop=1;jettySize=auto;html=1;exitX=0.5;exitY=1;exitDx=0;exitDy=0;entryX=0.5;entryY=0;entryDx=0;entryDy=0;labelBackgroundColor=default;strokeColor=#028090;align=center;verticalAlign=middle;fontFamily=Helvetica;fontSize=11;fontColor=#E4FDE1;endArrow=classic;fillColor=#F45B69;" parent="WIyWlLk6GJQsqaUBKTNV-1" source="pEb8AcUWJKP8pIJCzRxQ-10" target="3u2NiJshkMNRiN74Tzxv-13" edge="1">
          <mxGeometry relative="1" as="geometry" />
        </mxCell>
        <mxCell id="pEb8AcUWJKP8pIJCzRxQ-10" value="d=1" style="rounded=0;whiteSpace=wrap;html=1;strokeColor=#028090;align=center;verticalAlign=middle;fontFamily=Helvetica;fontSize=11;fontColor=#E4FDE1;fillColor=#F45B69;" parent="WIyWlLk6GJQsqaUBKTNV-1" vertex="1">
          <mxGeometry x="700" y="430" width="70" height="40" as="geometry" />
        </mxCell>
        <mxCell id="3u2NiJshkMNRiN74Tzxv-0" value="i&amp;lt;=n" style="rhombus;whiteSpace=wrap;html=1;strokeColor=#028090;fontColor=#E4FDE1;fillColor=#FC68A8;" parent="WIyWlLk6GJQsqaUBKTNV-1" vertex="1">
          <mxGeometry x="435" y="150" width="100" height="90" as="geometry" />
        </mxCell>
        <mxCell id="3u2NiJshkMNRiN74Tzxv-1" value="No" style="edgeStyle=orthogonalEdgeStyle;rounded=0;html=1;jettySize=auto;orthogonalLoop=1;fontSize=11;endArrow=block;endFill=0;endSize=8;strokeWidth=1;shadow=0;labelBackgroundColor=none;strokeColor=#028090;fontColor=default;exitX=0;exitY=0.5;exitDx=0;exitDy=0;entryX=1;entryY=0.5;entryDx=0;entryDy=0;" parent="WIyWlLk6GJQsqaUBKTNV-1" source="3u2NiJshkMNRiN74Tzxv-0" target="3u2NiJshkMNRiN74Tzxv-2" edge="1">
          <mxGeometry y="10" relative="1" as="geometry">
            <mxPoint as="offset" />
            <mxPoint x="350" y="190" as="sourcePoint" />
            <mxPoint x="350" y="195" as="targetPoint" />
            <Array as="points" />
          </mxGeometry>
        </mxCell>
        <mxCell id="3u2NiJshkMNRiN74Tzxv-2" value="&lt;font color=&quot;#ffffff&quot;&gt;&quot;Enter number greater or equal to 1.&quot;&lt;/font&gt;" style="shape=parallelogram;perimeter=parallelogramPerimeter;whiteSpace=wrap;html=1;fixedSize=1;fillColor=#007FFF;labelBackgroundColor=none;strokeColor=#028090;fontColor=#E4FDE1;" parent="WIyWlLk6GJQsqaUBKTNV-1" vertex="1">
          <mxGeometry x="191" y="157.5" width="160" height="75" as="geometry" />
        </mxCell>
        <mxCell id="3u2NiJshkMNRiN74Tzxv-3" style="edgeStyle=orthogonalEdgeStyle;shape=connector;rounded=0;orthogonalLoop=1;jettySize=auto;html=1;exitX=0.5;exitY=0;exitDx=0;exitDy=0;entryX=0.5;entryY=1;entryDx=0;entryDy=0;entryPerimeter=0;labelBackgroundColor=default;strokeColor=#028090;align=center;verticalAlign=middle;fontFamily=Helvetica;fontSize=11;fontColor=#E4FDE1;endArrow=classic;fillColor=#F45B69;" parent="WIyWlLk6GJQsqaUBKTNV-1" source="3u2NiJshkMNRiN74Tzxv-2" target="nasBl9K5YajOh5_W6PYL-3" edge="1">
          <mxGeometry relative="1" as="geometry" />
        </mxCell>
        <mxCell id="3u2NiJshkMNRiN74Tzxv-4" value="i%2==0" style="rhombus;whiteSpace=wrap;html=1;shadow=0;fontFamily=Helvetica;fontSize=12;align=center;strokeWidth=1;spacing=6;spacingTop=-4;labelBackgroundColor=none;fillColor=#FC68A8;strokeColor=#028090;fontColor=#E4FDE1;" parent="WIyWlLk6GJQsqaUBKTNV-1" vertex="1">
          <mxGeometry x="632.5" y="155" width="100" height="80" as="geometry" />
        </mxCell>
        <mxCell id="3u2NiJshkMNRiN74Tzxv-5" value="Yes" style="edgeStyle=orthogonalEdgeStyle;rounded=0;html=1;jettySize=auto;orthogonalLoop=1;fontSize=11;endArrow=block;endFill=0;endSize=8;strokeWidth=1;shadow=0;labelBackgroundColor=none;strokeColor=#028090;fontColor=default;exitX=1;exitY=0.5;exitDx=0;exitDy=0;entryX=0;entryY=0.5;entryDx=0;entryDy=0;" parent="WIyWlLk6GJQsqaUBKTNV-1" source="3u2NiJshkMNRiN74Tzxv-0" target="3u2NiJshkMNRiN74Tzxv-4" edge="1">
          <mxGeometry x="-0.0769" y="-15" relative="1" as="geometry">
            <mxPoint as="offset" />
            <mxPoint x="570" y="160" as="sourcePoint" />
            <mxPoint x="632" y="160" as="targetPoint" />
            <Array as="points" />
          </mxGeometry>
        </mxCell>
        <mxCell id="3u2NiJshkMNRiN74Tzxv-6" value="Yes" style="edgeStyle=orthogonalEdgeStyle;rounded=0;html=1;jettySize=auto;orthogonalLoop=1;fontSize=11;endArrow=block;endFill=0;endSize=8;strokeWidth=1;shadow=0;labelBackgroundColor=none;strokeColor=#028090;fontColor=default;exitX=1;exitY=0.5;exitDx=0;exitDy=0;entryX=0.5;entryY=0;entryDx=0;entryDy=0;" parent="WIyWlLk6GJQsqaUBKTNV-1" source="3u2NiJshkMNRiN74Tzxv-4" target="3u2NiJshkMNRiN74Tzxv-9" edge="1">
          <mxGeometry x="0.4667" y="-15" relative="1" as="geometry">
            <mxPoint as="offset" />
            <mxPoint x="780" y="180" as="sourcePoint" />
            <mxPoint x="790" y="290" as="targetPoint" />
            <Array as="points" />
          </mxGeometry>
        </mxCell>
        <mxCell id="3u2NiJshkMNRiN74Tzxv-7" value="No" style="edgeStyle=orthogonalEdgeStyle;rounded=0;html=1;jettySize=auto;orthogonalLoop=1;fontSize=11;endArrow=block;endFill=0;endSize=8;strokeWidth=1;shadow=0;labelBackgroundColor=none;strokeColor=#028090;fontColor=default;exitX=0.5;exitY=1;exitDx=0;exitDy=0;entryX=0.5;entryY=0;entryDx=0;entryDy=0;" parent="WIyWlLk6GJQsqaUBKTNV-1" source="3u2NiJshkMNRiN74Tzxv-4" target="3u2NiJshkMNRiN74Tzxv-8" edge="1">
          <mxGeometry x="-0.0526" y="18" relative="1" as="geometry">
            <mxPoint as="offset" />
            <mxPoint x="750" y="352.5" as="sourcePoint" />
            <mxPoint x="680" y="380" as="targetPoint" />
            <Array as="points" />
          </mxGeometry>
        </mxCell>
        <mxCell id="3u2NiJshkMNRiN74Tzxv-12" style="edgeStyle=orthogonalEdgeStyle;shape=connector;rounded=0;orthogonalLoop=1;jettySize=auto;html=1;exitX=1;exitY=0.5;exitDx=0;exitDy=0;labelBackgroundColor=default;strokeColor=#028090;align=center;verticalAlign=middle;fontFamily=Helvetica;fontSize=11;fontColor=#E4FDE1;endArrow=classic;fillColor=#F45B69;entryX=0.5;entryY=0;entryDx=0;entryDy=0;" parent="WIyWlLk6GJQsqaUBKTNV-1" source="3u2NiJshkMNRiN74Tzxv-8" target="pEb8AcUWJKP8pIJCzRxQ-10" edge="1">
          <mxGeometry relative="1" as="geometry">
            <mxPoint x="740" y="430" as="targetPoint" />
          </mxGeometry>
        </mxCell>
        <mxCell id="3u2NiJshkMNRiN74Tzxv-8" value="1" style="shape=document;whiteSpace=wrap;html=1;boundedLbl=1;strokeColor=#028090;fontColor=#E4FDE1;fillColor=#B266FF;" parent="WIyWlLk6GJQsqaUBKTNV-1" vertex="1">
          <mxGeometry x="657.5" y="330.63" width="50" height="50" as="geometry" />
        </mxCell>
        <mxCell id="3u2NiJshkMNRiN74Tzxv-11" style="edgeStyle=orthogonalEdgeStyle;shape=connector;rounded=0;orthogonalLoop=1;jettySize=auto;html=1;exitX=0;exitY=0.5;exitDx=0;exitDy=0;labelBackgroundColor=default;strokeColor=#028090;align=center;verticalAlign=middle;fontFamily=Helvetica;fontSize=11;fontColor=#E4FDE1;endArrow=classic;fillColor=#F45B69;entryX=0.5;entryY=0;entryDx=0;entryDy=0;" parent="WIyWlLk6GJQsqaUBKTNV-1" source="3u2NiJshkMNRiN74Tzxv-9" target="pEb8AcUWJKP8pIJCzRxQ-10" edge="1">
          <mxGeometry relative="1" as="geometry">
            <mxPoint x="730" y="420" as="targetPoint" />
          </mxGeometry>
        </mxCell>
        <mxCell id="3u2NiJshkMNRiN74Tzxv-9" value="0" style="shape=document;whiteSpace=wrap;html=1;boundedLbl=1;strokeColor=#028090;fontColor=#E4FDE1;fillColor=#B266FF;" parent="WIyWlLk6GJQsqaUBKTNV-1" vertex="1">
          <mxGeometry x="760" y="330" width="50" height="51.25" as="geometry" />
        </mxCell>
        <mxCell id="3u2NiJshkMNRiN74Tzxv-13" value="d==i" style="rhombus;whiteSpace=wrap;html=1;shadow=0;fontFamily=Helvetica;fontSize=12;align=center;strokeWidth=1;spacing=6;spacingTop=-4;labelBackgroundColor=none;fillColor=#FC68A8;strokeColor=#028090;fontColor=#E4FDE1;" parent="WIyWlLk6GJQsqaUBKTNV-1" vertex="1">
          <mxGeometry x="685" y="530" width="100" height="80" as="geometry" />
        </mxCell>
        <mxCell id="3u2NiJshkMNRiN74Tzxv-15" value="Yes" style="edgeStyle=orthogonalEdgeStyle;rounded=0;html=1;jettySize=auto;orthogonalLoop=1;fontSize=11;endArrow=block;endFill=0;endSize=8;strokeWidth=1;shadow=0;labelBackgroundColor=none;strokeColor=#028090;fontColor=default;exitX=1;exitY=0.5;exitDx=0;exitDy=0;entryX=0.5;entryY=0;entryDx=0;entryDy=0;" parent="WIyWlLk6GJQsqaUBKTNV-1" source="3u2NiJshkMNRiN74Tzxv-13" target="3u2NiJshkMNRiN74Tzxv-16" edge="1">
          <mxGeometry x="0.2335" y="-15" relative="1" as="geometry">
            <mxPoint as="offset" />
            <mxPoint x="780" y="450" as="sourcePoint" />
            <mxPoint x="819" y="630" as="targetPoint" />
            <Array as="points" />
          </mxGeometry>
        </mxCell>
        <mxCell id="3u2NiJshkMNRiN74Tzxv-33" style="edgeStyle=orthogonalEdgeStyle;shape=connector;rounded=0;orthogonalLoop=1;jettySize=auto;html=1;exitX=1;exitY=0.5;exitDx=0;exitDy=0;entryX=0;entryY=0.5;entryDx=0;entryDy=0;labelBackgroundColor=default;strokeColor=#028090;align=center;verticalAlign=middle;fontFamily=Helvetica;fontSize=11;fontColor=#E4FDE1;endArrow=classic;fillColor=#F45B69;" parent="WIyWlLk6GJQsqaUBKTNV-1" source="3u2NiJshkMNRiN74Tzxv-16" target="3u2NiJshkMNRiN74Tzxv-32" edge="1">
          <mxGeometry relative="1" as="geometry" />
        </mxCell>
        <mxCell id="3u2NiJshkMNRiN74Tzxv-16" value="i++" style="rounded=0;whiteSpace=wrap;html=1;strokeColor=#028090;fontColor=#E4FDE1;fillColor=#F45B69;" parent="WIyWlLk6GJQsqaUBKTNV-1" vertex="1">
          <mxGeometry x="805" y="674.5899999999999" width="70" height="35" as="geometry" />
        </mxCell>
        <mxCell id="3u2NiJshkMNRiN74Tzxv-17" value="No" style="edgeStyle=orthogonalEdgeStyle;rounded=0;html=1;jettySize=auto;orthogonalLoop=1;fontSize=11;endArrow=block;endFill=0;endSize=8;strokeWidth=1;shadow=0;labelBackgroundColor=none;strokeColor=#028090;fontColor=default;exitX=0;exitY=0.5;exitDx=0;exitDy=0;entryX=0.5;entryY=0;entryDx=0;entryDy=0;" parent="WIyWlLk6GJQsqaUBKTNV-1" source="3u2NiJshkMNRiN74Tzxv-13" target="3u2NiJshkMNRiN74Tzxv-18" edge="1">
          <mxGeometry x="0.1409" y="18" relative="1" as="geometry">
            <mxPoint y="1" as="offset" />
            <mxPoint x="730" y="640" as="sourcePoint" />
            <mxPoint x="665" y="720" as="targetPoint" />
            <Array as="points" />
          </mxGeometry>
        </mxCell>
        <mxCell id="3u2NiJshkMNRiN74Tzxv-18" value="(i-d)%2==0" style="rhombus;whiteSpace=wrap;html=1;strokeColor=#028090;fontColor=#E4FDE1;fillColor=#FC68A8;" parent="WIyWlLk6GJQsqaUBKTNV-1" vertex="1">
          <mxGeometry x="612.5" y="674.5899999999999" width="100" height="85" as="geometry" />
        </mxCell>
        <mxCell id="3u2NiJshkMNRiN74Tzxv-19" value="Yes" style="edgeStyle=orthogonalEdgeStyle;rounded=0;html=1;jettySize=auto;orthogonalLoop=1;fontSize=11;endArrow=block;endFill=0;endSize=8;strokeWidth=1;shadow=0;labelBackgroundColor=none;strokeColor=#028090;fontColor=default;exitX=1;exitY=0.5;exitDx=0;exitDy=0;entryX=0.5;entryY=0;entryDx=0;entryDy=0;" parent="WIyWlLk6GJQsqaUBKTNV-1" source="3u2NiJshkMNRiN74Tzxv-18" target="3u2NiJshkMNRiN74Tzxv-20" edge="1">
          <mxGeometry x="0.2335" y="-15" relative="1" as="geometry">
            <mxPoint as="offset" />
            <mxPoint x="750" y="720" as="sourcePoint" />
            <mxPoint x="780" y="825" as="targetPoint" />
            <Array as="points" />
          </mxGeometry>
        </mxCell>
        <mxCell id="3u2NiJshkMNRiN74Tzxv-26" style="edgeStyle=orthogonalEdgeStyle;shape=connector;rounded=0;orthogonalLoop=1;jettySize=auto;html=1;exitX=0;exitY=0.5;exitDx=0;exitDy=0;entryX=0.5;entryY=0;entryDx=0;entryDy=0;labelBackgroundColor=default;strokeColor=#028090;align=center;verticalAlign=middle;fontFamily=Helvetica;fontSize=11;fontColor=#E4FDE1;endArrow=classic;fillColor=#F45B69;" parent="WIyWlLk6GJQsqaUBKTNV-1" source="3u2NiJshkMNRiN74Tzxv-20" target="3u2NiJshkMNRiN74Tzxv-24" edge="1">
          <mxGeometry relative="1" as="geometry" />
        </mxCell>
        <mxCell id="3u2NiJshkMNRiN74Tzxv-20" value="0" style="shape=document;whiteSpace=wrap;html=1;boundedLbl=1;strokeColor=#028090;fontColor=#E4FDE1;fillColor=#B266FF;" parent="WIyWlLk6GJQsqaUBKTNV-1" vertex="1">
          <mxGeometry x="750" y="826.88" width="55" height="51.25" as="geometry" />
        </mxCell>
        <mxCell id="3u2NiJshkMNRiN74Tzxv-22" value="No" style="edgeStyle=orthogonalEdgeStyle;rounded=0;html=1;jettySize=auto;orthogonalLoop=1;fontSize=11;endArrow=block;endFill=0;endSize=8;strokeWidth=1;shadow=0;labelBackgroundColor=none;strokeColor=#028090;fontColor=default;exitX=0;exitY=0.5;exitDx=0;exitDy=0;entryX=0.5;entryY=0;entryDx=0;entryDy=0;" parent="WIyWlLk6GJQsqaUBKTNV-1" source="3u2NiJshkMNRiN74Tzxv-18" target="3u2NiJshkMNRiN74Tzxv-23" edge="1">
          <mxGeometry x="0.0761" y="13" relative="1" as="geometry">
            <mxPoint as="offset" />
            <mxPoint x="600" y="730" as="sourcePoint" />
            <mxPoint x="578" y="835" as="targetPoint" />
            <Array as="points" />
          </mxGeometry>
        </mxCell>
        <mxCell id="3u2NiJshkMNRiN74Tzxv-25" style="edgeStyle=orthogonalEdgeStyle;shape=connector;rounded=0;orthogonalLoop=1;jettySize=auto;html=1;exitX=1;exitY=0.5;exitDx=0;exitDy=0;entryX=0.5;entryY=0;entryDx=0;entryDy=0;labelBackgroundColor=default;strokeColor=#028090;align=center;verticalAlign=middle;fontFamily=Helvetica;fontSize=11;fontColor=#E4FDE1;endArrow=classic;fillColor=#F45B69;" parent="WIyWlLk6GJQsqaUBKTNV-1" source="3u2NiJshkMNRiN74Tzxv-23" target="3u2NiJshkMNRiN74Tzxv-24" edge="1">
          <mxGeometry relative="1" as="geometry" />
        </mxCell>
        <mxCell id="3u2NiJshkMNRiN74Tzxv-23" value="1" style="shape=document;whiteSpace=wrap;html=1;boundedLbl=1;strokeColor=#028090;fontColor=#E4FDE1;fillColor=#B266FF;" parent="WIyWlLk6GJQsqaUBKTNV-1" vertex="1">
          <mxGeometry x="550" y="826.88" width="55" height="51.25" as="geometry" />
        </mxCell>
        <mxCell id="3u2NiJshkMNRiN74Tzxv-29" style="edgeStyle=orthogonalEdgeStyle;shape=connector;rounded=0;orthogonalLoop=1;jettySize=auto;html=1;exitX=0.5;exitY=1;exitDx=0;exitDy=0;entryX=0.5;entryY=0;entryDx=0;entryDy=0;labelBackgroundColor=default;strokeColor=#028090;align=center;verticalAlign=middle;fontFamily=Helvetica;fontSize=11;fontColor=#E4FDE1;endArrow=classic;fillColor=#F45B69;" parent="WIyWlLk6GJQsqaUBKTNV-1" source="3u2NiJshkMNRiN74Tzxv-24" target="3u2NiJshkMNRiN74Tzxv-28" edge="1">
          <mxGeometry relative="1" as="geometry" />
        </mxCell>
        <mxCell id="3u2NiJshkMNRiN74Tzxv-24" value="d++" style="rounded=0;whiteSpace=wrap;html=1;strokeColor=#028090;align=center;verticalAlign=middle;fontFamily=Helvetica;fontSize=11;fontColor=#E4FDE1;fillColor=#F45B69;" parent="WIyWlLk6GJQsqaUBKTNV-1" vertex="1">
          <mxGeometry x="645" y="940" width="75" height="41.68" as="geometry" />
        </mxCell>
        <mxCell id="3u2NiJshkMNRiN74Tzxv-28" value="1" style="ellipse;whiteSpace=wrap;html=1;aspect=fixed;rounded=0;strokeColor=#028090;align=center;verticalAlign=middle;fontFamily=Helvetica;fontSize=11;fontColor=#E4FDE1;fillColor=#006600;" parent="WIyWlLk6GJQsqaUBKTNV-1" vertex="1">
          <mxGeometry x="665" y="1030" width="35" height="35" as="geometry" />
        </mxCell>
        <mxCell id="3u2NiJshkMNRiN74Tzxv-31" style="edgeStyle=orthogonalEdgeStyle;shape=connector;rounded=0;orthogonalLoop=1;jettySize=auto;html=1;exitX=0;exitY=0.5;exitDx=0;exitDy=0;entryX=0.5;entryY=0;entryDx=0;entryDy=0;labelBackgroundColor=default;strokeColor=#028090;align=center;verticalAlign=middle;fontFamily=Helvetica;fontSize=11;fontColor=#E4FDE1;endArrow=classic;fillColor=#F45B69;" parent="WIyWlLk6GJQsqaUBKTNV-1" source="3u2NiJshkMNRiN74Tzxv-30" target="3u2NiJshkMNRiN74Tzxv-13" edge="1">
          <mxGeometry relative="1" as="geometry" />
        </mxCell>
        <mxCell id="3u2NiJshkMNRiN74Tzxv-30" value="1" style="ellipse;whiteSpace=wrap;html=1;aspect=fixed;rounded=0;strokeColor=#028090;align=center;verticalAlign=middle;fontFamily=Helvetica;fontSize=11;fontColor=#E4FDE1;fillColor=#006600;" parent="WIyWlLk6GJQsqaUBKTNV-1" vertex="1">
          <mxGeometry x="820" y="490" width="35" height="35" as="geometry" />
        </mxCell>
        <mxCell id="3u2NiJshkMNRiN74Tzxv-32" value="i==n" style="rhombus;whiteSpace=wrap;html=1;strokeColor=#028090;fontColor=#E4FDE1;fillColor=#FC68A8;" parent="WIyWlLk6GJQsqaUBKTNV-1" vertex="1">
          <mxGeometry x="930" y="649.59" width="100" height="85" as="geometry" />
        </mxCell>
        <mxCell id="3u2NiJshkMNRiN74Tzxv-34" value="Yes" style="edgeStyle=orthogonalEdgeStyle;rounded=0;html=1;jettySize=auto;orthogonalLoop=1;fontSize=11;endArrow=block;endFill=0;endSize=8;strokeWidth=1;shadow=0;labelBackgroundColor=none;strokeColor=#028090;fontColor=default;exitX=1;exitY=0.5;exitDx=0;exitDy=0;entryX=0.5;entryY=0;entryDx=0;entryDy=0;" parent="WIyWlLk6GJQsqaUBKTNV-1" source="3u2NiJshkMNRiN74Tzxv-32" target="nasBl9K5YajOh5_W6PYL-31" edge="1">
          <mxGeometry x="0.2335" y="-15" relative="1" as="geometry">
            <mxPoint as="offset" />
            <mxPoint x="1100" y="670" as="sourcePoint" />
            <mxPoint x="1090" y="790" as="targetPoint" />
            <Array as="points" />
          </mxGeometry>
        </mxCell>
        <mxCell id="3u2NiJshkMNRiN74Tzxv-35" value="No" style="edgeStyle=orthogonalEdgeStyle;rounded=0;html=1;jettySize=auto;orthogonalLoop=1;fontSize=11;endArrow=block;endFill=0;endSize=8;strokeWidth=1;shadow=0;labelBackgroundColor=none;strokeColor=#028090;fontColor=default;exitX=0.5;exitY=1;exitDx=0;exitDy=0;entryX=0.5;entryY=0;entryDx=0;entryDy=0;" parent="WIyWlLk6GJQsqaUBKTNV-1" source="3u2NiJshkMNRiN74Tzxv-32" target="3u2NiJshkMNRiN74Tzxv-36" edge="1">
          <mxGeometry x="0.1409" y="18" relative="1" as="geometry">
            <mxPoint y="1" as="offset" />
            <mxPoint x="930" y="780" as="sourcePoint" />
            <mxPoint x="980" y="810" as="targetPoint" />
            <Array as="points" />
          </mxGeometry>
        </mxCell>
        <mxCell id="3u2NiJshkMNRiN74Tzxv-36" value="2" style="ellipse;whiteSpace=wrap;html=1;aspect=fixed;rounded=0;strokeColor=#028090;align=center;verticalAlign=middle;fontFamily=Helvetica;fontSize=11;fontColor=#E4FDE1;fillColor=#006600;" parent="WIyWlLk6GJQsqaUBKTNV-1" vertex="1">
          <mxGeometry x="962.5" y="810" width="35" height="35" as="geometry" />
        </mxCell>
        <mxCell id="3u2NiJshkMNRiN74Tzxv-38" style="edgeStyle=orthogonalEdgeStyle;shape=connector;rounded=0;orthogonalLoop=1;jettySize=auto;html=1;exitX=0.5;exitY=1;exitDx=0;exitDy=0;entryX=0.5;entryY=0;entryDx=0;entryDy=0;labelBackgroundColor=default;strokeColor=#028090;align=center;verticalAlign=middle;fontFamily=Helvetica;fontSize=11;fontColor=#E4FDE1;endArrow=classic;fillColor=#F45B69;" parent="WIyWlLk6GJQsqaUBKTNV-1" source="3u2NiJshkMNRiN74Tzxv-37" target="3u2NiJshkMNRiN74Tzxv-4" edge="1">
          <mxGeometry relative="1" as="geometry" />
        </mxCell>
        <mxCell id="3u2NiJshkMNRiN74Tzxv-37" value="2" style="ellipse;whiteSpace=wrap;html=1;aspect=fixed;rounded=0;strokeColor=#028090;align=center;verticalAlign=middle;fontFamily=Helvetica;fontSize=11;fontColor=#E4FDE1;fillColor=#006600;" parent="WIyWlLk6GJQsqaUBKTNV-1" vertex="1">
          <mxGeometry x="665" y="52.5" width="35" height="35" as="geometry" />
        </mxCell>
      </root>
    </mxGraphModel>
  </diagram>
</mxfile>
